 http://imageshack.us/m/853/9360/tnt24infoferociousplane.jpg

Country.......: USA
Genre.........: Thriller, Sci-Fi, Adventure
Date release..: 09.04.2011 [World]
Director......: Billy O Brien
Writers.......: Douglas G. Davis
Duration......: 88 min.
More..........: http://www.imdb.com/title/tt1637728
Trailer.......:

Pilot :
A groundbreaking device is designed to glimpse alternate universes. But when the machine malfunctions and transports a group of observers into a nightmarish dimension of alien terrors, the travelers must use ingenuity to survive. 

Cats :
Joe Flanigan   	 ...  	Colonel Sam Synn
John Rhys Davies 	... 	Senator Jackson Crenshaw
Catherine Walker 	... 	Dr. Karen Fast
Dagmar Doring 	... 	Dr. Jillian O Hara
Robert Soohan 	... 	Brian Murphy
Yare Michael Jegbefume 	... 	Lieutenant Rivers
Chris Newman 	... 	Pvt. Jordan Reid
Shashi Rami 	... 	Al Icia
Kevin Flood 	... 	Lex Michaels 

Data Technical :
!!! SAMPLE !!!
Audio.....: English
Subtitles.: Romanian .srt
Format                           : AVI
Format/Info                      : Audio Video Interleave
File size                        : 700 MiB
Duration                         : 1h 27mn
Overall bit rate                 : 1 113 Kbps
Writing application              : VirtualDubMod 1.5.4.1 (build 2178/release)
Writing library                  : VirtualDubMod build 2178/release
Video
ID                               : 0
Format                           : MPEG-4 Visual
Format profile                   : Advanced Simple@L5
Format settings, BVOP            : Yes
Format settings, QPel            : No
Format settings, GMC             : No warppoints
Format settings, Matrix          : Custom
Codec ID                         : XVID
Codec ID/Hint                    : XviD
Duration                         : 1h 27mn
Bit rate                         : 974 Kbps
Width                            : 608 pixels
Height                           : 352 pixels
Display aspect ratio             : 16:9
Frame rate                       : 23.976 fps
Color space                      : YUV
Chroma subsampling               : 4:2:0
Bit depth                        : 8 bits
Scan type                        : Progressive
Bits/(Pixel*Frame)               : 0.190
Stream size                      : 613 MiB (87%)
Writing library                  : XviD 1.2.1 (UTC 2008-12-04)
Audio
ID                               : 1
Format                           : MPEG Audio
Format version                   : Version 1
Format profile                   : Layer 3
Mode                             : Joint stereo
Mode extension                   : MS Stereo
Codec ID                         : 55
Codec ID/Hint                    : MP3
Duration                         : 1h 27mn
Bit rate mode                    : Variable
Bit rate                         : 128 Kbps
Channel(s)                       : 2 channels
Sampling rate                    : 48.0 KHz
Stream size                      : 79.6 MiB (11%)
Alignment                        : Aligned on interleaves
Interleave, duration             : 24 ms (0.58 video frame)
Interleave, preload duration     : 425 ms
Writing library                  : LAME3.98r
Encoding settings                : -m j -V 4 -q 2 -lowpass 17 --abr 128

Screen : 
http://imageshack.us/m/546/2185/ferociousplanet2011s1.jpg 
http://imageshack.us/m/848/555/ferociousplanet2011s2.jpg 
http://imageshack.us/m/218/2262/ferociousplanet2011s3.jpg 
http://imageshack.us/m/683/2347/ferociousplanet2011s4.jpg 
http://imageshack.us/m/217/7007/ferociousplanet2011s5.jpg